<svg xmlns="http://www.w3.org/2000/svg" width="955.97" height="92.56" viewBox="0 0 955.97 92.56">
  <defs>
    <style>
      @media (prefers-color-scheme: dark) {
        .cls-1 {
          fill: #a9a9a9ff;
        }
      }

      @media (prefers-color-scheme: light) {
        .cls-1 {
          fill: #051c2c;
        }
      }

      .cls-2 {
        fill: #f93549;
      }
    </style>
  </defs>
  <g id="Ebene_2" data-name="Ebene 2">
    <g id="Ebene_1-2" data-name="Ebene 1">
      <g id="maximilian_schluer">
        <polygon class="cls-1" points="68.9 5.73 43.94 70.69 43.7 70.69 18.39 5.73 0 5.73 0 90.27 11.46 90.27 11.46 19.58 11.7 19.58 39.64 90.27 47.16 90.27 75.23 19.58 75.46 19.58 75.46 90.27 87.29 90.27 87.29 5.73 68.9 5.73"/>
        <g>
          <path class="cls-1" d="M134,63.29c-2.78,0-5.67.11-8.65.35a39.78,39.78,0,0,0-8.12,1.44,15.28,15.28,0,0,0-6,3.22A7.3,7.3,0,0,0,108.77,74a8,8,0,0,0,1,4.18A8.41,8.41,0,0,0,112.47,81a11,11,0,0,0,3.7,1.49,20.65,20.65,0,0,0,4.18.42q7.89,0,12.12-4.72a17.07,17.07,0,0,0,4.24-11.88v-3Zm2.75-9.68q0-6.33-3.82-9.37t-10.15-3a22.15,22.15,0,0,0-9,1.85,22.73,22.73,0,0,0-7.11,4.71l-6-7.16a30,30,0,0,1,10.21-6.21,36.56,36.56,0,0,1,13-2.27,29.28,29.28,0,0,1,10.56,1.73,19.92,19.92,0,0,1,7.34,4.72,19.32,19.32,0,0,1,4.31,7,26.19,26.19,0,0,1,1.43,8.72V79.05q0,2.86.18,6a30.72,30.72,0,0,0,.66,5.19H138.14a35.65,35.65,0,0,1-.95-8.12h-.36a21.72,21.72,0,0,1-7.82,7,23.5,23.5,0,0,1-11.16,2.51,29.09,29.09,0,0,1-7-.9,20.22,20.22,0,0,1-6.63-2.93,16.42,16.42,0,0,1-5-5.37,15.91,15.91,0,0,1-2-8.24q0-6.45,3.46-10.21a21.88,21.88,0,0,1,9.07-5.73,51.48,51.48,0,0,1,12.66-2.57q7.05-.6,14.21-.59Z"/>
          <path class="cls-1" d="M257,90.27H245.75V33.67H257Zm1.79-77a6.71,6.71,0,0,1-2.19,5.14,7.5,7.5,0,0,1-5.27,2,7.17,7.17,0,0,1-5.21-2.09A6.85,6.85,0,0,1,244,13.25a7,7,0,0,1,2.13-5.19A7.17,7.17,0,0,1,251.3,6a7.38,7.38,0,0,1,5.27,2.09,6.87,6.87,0,0,1,2.19,5.19"/>
          <path class="cls-1" d="M287.77,35.28a19.61,19.61,0,0,1,11.16-3.16,20.45,20.45,0,0,1,10.33,2.63,17.59,17.59,0,0,1,7.22,8.71,20.21,20.21,0,0,1,8-8.41A23.83,23.83,0,0,1,345.15,34a19.21,19.21,0,0,1,6.56,5,19.93,19.93,0,0,1,3.88,7.28,30.9,30.9,0,0,1,1.25,9v35.1H345.62V58.87a34.59,34.59,0,0,0-.6-6.57,16.62,16.62,0,0,0-2-5.49A10.84,10.84,0,0,0,339.17,43a11.63,11.63,0,0,0-6.09-1.44,12.66,12.66,0,0,0-6.56,1.62A13.41,13.41,0,0,0,322,47.35a17.59,17.59,0,0,0-2.51,5.78,27.91,27.91,0,0,0-.78,6.57V90.27H307.53V56.6a28.57,28.57,0,0,0-.6-6.09,12.26,12.26,0,0,0-2-4.72,10.09,10.09,0,0,0-3.7-3.1,12.4,12.4,0,0,0-5.61-1.14,12.79,12.79,0,0,0-10.33,5.08q-4.12,5.07-4.12,13.55V90.27H269.92V45.85c0-1.51-.05-3.46-.12-5.85s-.2-4.5-.36-6.33h10.62c.16,1.43.28,3,.36,4.84s.12,3.28.12,4.48h.36a19.15,19.15,0,0,1,6.87-7.71"/>
          <path class="cls-1" d="M380.31,90.27H369.09V33.67h11.22Zm1.79-77a6.71,6.71,0,0,1-2.19,5.14,7.5,7.5,0,0,1-5.27,2,7.17,7.17,0,0,1-5.21-2.09,6.82,6.82,0,0,1-2.14-5.08,6.94,6.94,0,0,1,2.14-5.19A7.17,7.17,0,0,1,374.64,6a7.38,7.38,0,0,1,5.27,2.09,6.87,6.87,0,0,1,2.19,5.19"/>
        </g>
        <rect class="cls-1" x="393.36" width="11.22" height="90.27"/>
        <g>
          <path class="cls-1" d="M428.74,90.27H417.51V33.67h11.23Zm1.79-77a6.71,6.71,0,0,1-2.19,5.14,7.5,7.5,0,0,1-5.27,2,7.21,7.21,0,0,1-5.22-2.09,6.85,6.85,0,0,1-2.13-5.08,7,7,0,0,1,2.13-5.19A7.21,7.21,0,0,1,423.07,6a7.38,7.38,0,0,1,5.27,2.09,6.87,6.87,0,0,1,2.19,5.19"/>
          <path class="cls-1" d="M474.14,63.29c-2.79,0-5.67.11-8.66.35a39.9,39.9,0,0,0-8.12,1.44,15.28,15.28,0,0,0-6,3.22A7.33,7.33,0,0,0,448.94,74a7.89,7.89,0,0,0,1,4.18A8.38,8.38,0,0,0,452.64,81a11,11,0,0,0,3.7,1.49,20.65,20.65,0,0,0,4.18.42q7.89,0,12.13-4.72a17.11,17.11,0,0,0,4.23-11.88v-3Zm2.74-9.68q0-6.33-3.82-9.37t-10.15-3a22.15,22.15,0,0,0-9,1.85,22.85,22.85,0,0,0-7.11,4.71l-6-7.16A30.1,30.1,0,0,1,451,34.39a36.56,36.56,0,0,1,13-2.27,29.28,29.28,0,0,1,10.56,1.73,20,20,0,0,1,7.35,4.72,19.43,19.43,0,0,1,4.3,7,26.19,26.19,0,0,1,1.43,8.72V79.05q0,2.86.18,6a30.72,30.72,0,0,0,.66,5.19H478.32a35.12,35.12,0,0,1-1-8.12H477a21.64,21.64,0,0,1-7.82,7A23.45,23.45,0,0,1,458,91.71a29.15,29.15,0,0,1-7-.9,20.22,20.22,0,0,1-6.63-2.93,16.42,16.42,0,0,1-4.95-5.37,16,16,0,0,1-2-8.24q0-6.45,3.46-10.21A21.85,21.85,0,0,1,450,58.33a51.39,51.39,0,0,1,12.65-2.57q7.05-.6,14.21-.59Z"/>
          <path class="cls-1" d="M510,33.67c.16,1.43.28,3,.36,4.84s.12,3.28.12,4.48h.36a16.28,16.28,0,0,1,2.93-4.24,21.2,21.2,0,0,1,15.46-6.63A22.06,22.06,0,0,1,538.64,34a19.16,19.16,0,0,1,6.57,5,19.93,19.93,0,0,1,3.88,7.28,30.9,30.9,0,0,1,1.25,9v35.1H539.12V58.87a38.33,38.33,0,0,0-.54-6.57,15.53,15.53,0,0,0-2-5.49A10.63,10.63,0,0,0,532.67,43a12.83,12.83,0,0,0-6.45-1.44,13.55,13.55,0,0,0-10.92,5.08q-4.24,5.07-4.24,13.55V90.27H499.84V45.85c0-1.51,0-3.46-.13-5.85s-.19-4.5-.35-6.33Z"/>
          <path class="cls-1" d="M638.25,21.51a19.14,19.14,0,0,0-6.81-5.67,20.89,20.89,0,0,0-9.67-2.21,22.34,22.34,0,0,0-5.79.78,15.79,15.79,0,0,0-5.32,2.51,13.79,13.79,0,0,0-3.88,4.3,12,12,0,0,0-1.49,6.15,11.2,11.2,0,0,0,1.37,5.79,12.61,12.61,0,0,0,3.7,3.94,23.53,23.53,0,0,0,5.5,2.74c2.11.76,4.35,1.54,6.74,2.33,2.87.88,5.78,1.87,8.72,3a31.51,31.51,0,0,1,8,4.41,21.77,21.77,0,0,1,5.85,6.87,21.53,21.53,0,0,1,2.27,10.45A25,25,0,0,1,645,78.29a23.15,23.15,0,0,1-6.51,8A27.4,27.4,0,0,1,629.11,91a38.89,38.89,0,0,1-10.92,1.55,39.86,39.86,0,0,1-15.47-3.1,30.79,30.79,0,0,1-12.36-9.2l9.2-7.76a22.69,22.69,0,0,0,24.83,9.08A17,17,0,0,0,629.83,79a14.48,14.48,0,0,0,4-4.48,12.84,12.84,0,0,0,1.55-6.5,11.84,11.84,0,0,0-1.61-6.39,14.28,14.28,0,0,0-4.36-4.36,28.71,28.71,0,0,0-6.39-3c-2.43-.83-5-1.69-7.7-2.57a64.54,64.54,0,0,1-8-2.92,27.64,27.64,0,0,1-7.05-4.42,20.32,20.32,0,0,1-5-6.63,22.22,22.22,0,0,1-1.91-9.79A21.7,21.7,0,0,1,595.91,17a23.53,23.53,0,0,1,6.69-7.53,27.76,27.76,0,0,1,9.31-4.35,40.6,40.6,0,0,1,10.45-1.38,36.42,36.42,0,0,1,13.86,2.63,27.59,27.59,0,0,1,10.38,7Z"/>
          <path class="cls-1" d="M697.1,48.14a13.72,13.72,0,0,0-5.37-4.59,16.37,16.37,0,0,0-7.65-1.85,17.46,17.46,0,0,0-7.82,1.67,17.75,17.75,0,0,0-5.79,4.48,19.8,19.8,0,0,0-3.64,6.5,24.53,24.53,0,0,0,0,15.52,19.74,19.74,0,0,0,3.64,6.51,17.58,17.58,0,0,0,5.85,4.48,19.28,19.28,0,0,0,15.7,0,15.94,15.94,0,0,0,5.8-4.54l7.52,6.81a24.25,24.25,0,0,1-9,6.51A30.38,30.38,0,0,1,684.2,92a33.38,33.38,0,0,1-12.12-2.15,29,29,0,0,1-9.61-6,27.69,27.69,0,0,1-6.39-9.38,31.25,31.25,0,0,1-2.32-12.3A31.53,31.53,0,0,1,656,49.93a27.5,27.5,0,0,1,6.32-9.43A28.19,28.19,0,0,1,672,34.41a33,33,0,0,1,12-2.15,31.57,31.57,0,0,1,11.88,2.39,21.73,21.73,0,0,1,9.37,6.92Z"/>
          <path class="cls-1" d="M722.39,42.41a17.44,17.44,0,0,1,6.92-7.16,20.72,20.72,0,0,1,11-3,22.06,22.06,0,0,1,9.43,1.85,19.16,19.16,0,0,1,6.57,5,20,20,0,0,1,3.88,7.28,30.9,30.9,0,0,1,1.26,9v35.1H750.21V59.05a39.5,39.5,0,0,0-.53-6.58,15.84,15.84,0,0,0-2-5.51,10.87,10.87,0,0,0-3.88-3.83,12.5,12.5,0,0,0-6.39-1.43,13.73,13.73,0,0,0-11,5.08q-4.31,5.09-4.3,13.59v30H710.93V.14h11.22V42.41Z"/>
        </g>
        <rect class="cls-1" x="774" y="0.14" width="11.23" height="90.27"/>
        <g>
          <path class="cls-1" d="M838,90.41q-.24-2.14-.36-4.83c-.08-1.79-.12-3.29-.12-4.48h-.24a18.51,18.51,0,0,1-7.22,7.7A20.93,20.93,0,0,1,818.8,92a23.16,23.16,0,0,1-9.49-1.79,17.55,17.55,0,0,1-6.57-5,21.14,21.14,0,0,1-3.82-7.34,30.9,30.9,0,0,1-1.25-9V33.81h11.22V65.1a39.38,39.38,0,0,0,.54,6.63,15.56,15.56,0,0,0,2,5.55,10.71,10.71,0,0,0,3.94,3.82,12.84,12.84,0,0,0,6.45,1.43,13.55,13.55,0,0,0,11-5.07c2.79-3.39,4.18-7.9,4.18-13.56V33.81h11.22V78.24c0,1.51,0,3.46.13,5.84s.19,4.5.35,6.33Z"/>
          <path class="cls-1" d="M902.69,57.1a21.92,21.92,0,0,0-1.14-6.27,14.44,14.44,0,0,0-3-5.07,14.09,14.09,0,0,0-4.9-3.41,17.44,17.44,0,0,0-6.87-1.25,18.31,18.31,0,0,0-6.75,1.25,17.55,17.55,0,0,0-5.49,3.41,18,18,0,0,0-3.82,5.07A16.29,16.29,0,0,0,869,57.1Zm11.46,4.54v1.91a15.43,15.43,0,0,1-.12,1.91H869a16.87,16.87,0,0,0,1.61,6.7,17.76,17.76,0,0,0,4,5.45,18.4,18.4,0,0,0,5.79,3.62,20.28,20.28,0,0,0,16.9-1.2,20.46,20.46,0,0,0,6.57-6.09l7.88,6.33a28.23,28.23,0,0,1-10.69,8.85A32.13,32.13,0,0,1,887.4,92a32.53,32.53,0,0,1-11.94-2.15,27,27,0,0,1-15.64-15.41,31.46,31.46,0,0,1-2.27-12.18,32.41,32.41,0,0,1,2.21-12.12,27.86,27.86,0,0,1,6.16-9.49,28.18,28.18,0,0,1,9.34-6.15,32,32,0,0,1,22.91-.18,23.55,23.55,0,0,1,8.62,5.85,26.27,26.27,0,0,1,5.44,9.26,36.56,36.56,0,0,1,1.92,12.24"/>
          <path class="cls-1" d="M923.14,40.14c-.08-2.39-.2-4.49-.36-6.33h10.63c.16,1.44.27,3.09.36,5s.12,3.4.12,4.6h.35a19.51,19.51,0,0,1,7-8.06,18.29,18.29,0,0,1,10.33-3.05,17.26,17.26,0,0,1,4.41.48l-.47,10.39a21.06,21.06,0,0,0-5.14-.6,15.64,15.64,0,0,0-7,1.49,14.54,14.54,0,0,0-5,4,17,17,0,0,0-2.92,5.8,24.3,24.3,0,0,0-1,6.86V90.41H923.26V46q0-2.27-.12-5.85"/>
        </g>
        <polygon class="cls-2" points="178.76 60.58 158.13 33.75 171.97 33.75 185.79 53.19 190.96 60.46 185.56 68.22 169.58 90.27 156.11 90.27 178.76 60.58"/>
        <polygon class="cls-2" points="200.08 60.55 205.38 53.15 219.34 33.72 232.45 33.72 212.06 60.43 234.84 90.24 220.88 90.24 205.14 68.18 200.08 60.55"/>
      </g>
    </g>
  </g>
</svg>
